[IMG]http://i141.photobucket.com/albums/r51/mooselips_2006/DTTLCoverart.jpg[/IMG]
[IMG]http://i141.photobucket.com/albums/r51/mooselips_2006/DTTLDisc-1.jpg[/IMG]

Synopsis Of Dio: The Legend - Live
This musical release from legendary heavy metal band Dio, fronted by unparalleled rock vocalist Ronny James Dio, captures a live concert recorded in Tokyo in 1985. Some of the songs featured in the performance include "Hungry For Heaven", "Long Live Rock And Roll", and more. ~ Cammila Albertson, Rovi

Complete Cast Of Dio: The Legend - Live
Ronnie James Dio - Vocals
Vivian Campbell - Guitar
Claude Schnell - Keyboards
Vinny Appice - Drums
Jimmy Bain - Bass

Complete name : C:\Users\Documents\DIO - The Legend Live\DTTL Coverart.jpg
Format : JPEG
File size : 2.92 MiB

Image
Format : JPEG
Width : 2 093 pixels
Height : 3 161 pixels
Chroma subsampling : 4:2:0
Bit depth : 8 bits
Compression mode : Lossy

General
Complete name : C:\Users\Documents\DIO - The Legend Live\DTTL Disc.jpg
Format : JPEG
File size : 412 KiB

Image
Format : JPEG
Width : 1 445 pixels
Height : 1 463 pixels
Chroma subsampling : 4:2:0
Bit depth : 8 bits
Compression mode : Lossy

General
Complete name : C:\Users\Documents\DIO - The Legend Live\Torrent downloaded from
File size : 46.0 Bytes

General
Complete name : C:\Users\Documents\DIO - The Legend Live\VIDEO_TS\VIDEO_TS.BUP
Format : DVD Video
Format profile : Menu
File size : 12.0 KiB
Overall bit rate mode : Variable

Video
ID : 224 (0xE0)
Format : MPEG Video
Format version : Version 2
Bit rate mode : Variable
Width : 720 pixels
Height : 480 pixels
Display aspect ratio : 4:3
Frame rate : 29.970 fps
Standard : NTSC
Compression mode : Lossy

Text
Format : RLE
Format/Info : Run-length encoding
Bit depth : 2 bits

General
Complete name : C:\Users\Documents\DIO - The Legend Live\VIDEO_TS\VIDEO_TS.IFO
Format : DVD Video
Format profile : Menu
File size : 12.0 KiB
Overall bit rate mode : Variable

Video
ID : 224 (0xE0)
Format : MPEG Video
Format version : Version 2
Bit rate mode : Variable
Width : 720 pixels
Height : 480 pixels
Display aspect ratio : 4:3
Frame rate : 29.970 fps
Standard : NTSC
Compression mode : Lossy

Text
Format : RLE
Format/Info : Run-length encoding
Bit depth : 2 bits

General
Complete name : C:\Users\Documents\DIO - The Legend Live\VIDEO_TS\VIDEO_TS.VOB
Format : MPEG-PS
File size : 8.00 KiB
Duration : 33ms
Overall bit rate : 1 986 Kbps

Video
ID : 224 (0xE0)
Format : MPEG Video
Format version : Version 2
Format profile : Main@Main
Format settings, BVOP : No
Format settings, Matrix : Custom
Duration : 33ms
Maximum bit rate : 9 000 Kbps
Width : 720 pixels
Height : 480 pixels
Display aspect ratio : 4:3
Frame rate : 29.970 fps
Standard : NTSC
Color space : YUV
Chroma subsampling : 4:2:0
Bit depth : 8 bits
Scan type : Progressive
Scan order : Top Field First
Compression mode : Lossy
Color primaries : SMPTE 170M
Transfer characteristics : SMPTE 170M
Matrix coefficients : SMPTE 170M

Menu

General
Complete name : C:\Users\Documents\DIO - The Legend Live\VIDEO_TS\VTS_01_0.BUP
Format : DVD Video
Format profile : Program
File size : 38.0 KiB
Duration : 31mn 19s
Overall bit rate mode : Variable
Overall bit rate : 165 bps

Video
ID : 224 (0xE0)
Format : MPEG Video
Format version : Version 2
Duration : 31mn 19s
Bit rate mode : Variable
Width : 720 pixels
Height : 480 pixels
Display aspect ratio : 4:3
Frame rate : 29.970 fps
Standard : NTSC
Compression mode : Lossy

Audio
ID : 128 (0x80)
Format : AC-3
Format/Info : Audio Coding 3
Duration : 31mn 19s
Channel(s) : 2 channels
Sampling rate : 48.0 KHz
Compression mode : Lossy
Language : German

Menu
Duration : 31mn 19s
00:00:00.000 : Chapter 1
00:04:21.233 : Chapter 2
00:07:51.533 : Chapter 3
00:12:42.233 : Chapter 4
00:20:10.299 : Chapter 5
00:23:01.132 : Chapter 6
00:27:36.832 : Chapter 7
00:31:19.532 : Chapter 8
List (Audio) : 0

General
Complete name : C:\Users\Documents\DIO - The Legend Live\VIDEO_TS\VTS_01_0.IFO
Format : DVD Video
Format profile : Program
File size : 38.0 KiB
Duration : 31mn 19s
Overall bit rate mode : Variable
Overall bit rate : 165 bps

Video
ID : 224 (0xE0)
Format : MPEG Video
Format version : Version 2
Duration : 31mn 19s
Bit rate mode : Variable
Width : 720 pixels
Height : 480 pixels
Display aspect ratio : 4:3
Frame rate : 29.970 fps
Standard : NTSC
Compression mode : Lossy

Audio
ID : 128 (0x80)
Format : AC-3
Format/Info : Audio Coding 3
Duration : 31mn 19s
Channel(s) : 2 channels
Sampling rate : 48.0 KHz
Compression mode : Lossy
Language : German

Menu
Duration : 31mn 19s
00:00:00.000 : Chapter 1
00:04:21.233 : Chapter 2
00:07:51.533 : Chapter 3
00:12:42.233 : Chapter 4
00:20:10.299 : Chapter 5
00:23:01.132 : Chapter 6
00:27:36.832 : Chapter 7
00:31:19.532 : Chapter 8
List (Audio) : 0

General
Complete name : C:\Users\Documents\DIO - The Legend Live\VIDEO_TS\VTS_01_0.VOB
Format : MPEG-PS
File size : 244 KiB
Duration : 26h 30mn
Overall bit rate : 20 bps

Video
ID : 224 (0xE0)
Format : MPEG Video
Format version : Version 2
Format profile : Main@Main
Format settings, BVOP : No
Format settings, Matrix : Custom
Format settings, GOP : N=1
Duration : 33ms
Maximum bit rate : 9 000 Kbps
Width : 720 pixels
Height : 480 pixels
Display aspect ratio : 4:3
Frame rate : 29.970 fps
Standard : NTSC
Color space : YUV
Chroma subsampling : 4:2:0
Bit depth : 8 bits
Scan type : Progressive
Scan order : Top Field First
Compression mode : Lossy
Color primaries : SMPTE 170M
Transfer characteristics : SMPTE 170M
Matrix coefficients : SMPTE 170M

Text
ID : 189 (0xBD)-32 (0x20)
Format : RLE
Format/Info : Run-length encoding
Muxing mode : DVD-Video
Duration : 26h 30mn

Menu

General
Complete name : C:\Users\Documents\DIO - The Legend Live\VIDEO_TS\VTS_01_1.VOB
Format : MPEG-PS
File size : 1 024 MiB
Duration : 17mn 42s
Overall bit rate : 8 084 Kbps
Writing library : encoded by TMPGEnc (ver. 2.524.63.181)

Video
ID : 224 (0xE0)
Format : MPEG Video
Format version : Version 2
Format profile : Main@Main
Format settings, BVOP : Yes
Format settings, Matrix : Default
Duration : 17mn 42s
Bit rate : 7 731 Kbps
Width : 720 pixels
Height : 480 pixels
Display aspect ratio : 4:3
Frame rate : 29.970 fps
Standard : NTSC
Color space : YUV
Chroma subsampling : 4:2:0
Bit depth : 8 bits
Compression mode : Lossy
Bits/(Pixel*Frame) : 0.746
Stream size : 979 MiB (96%)
Writing library : TMPGEnc 2.524.63.181
Color primaries : SMPTE 170M
Transfer characteristics : SMPTE 170M
Matrix coefficients : SMPTE 170M

Audio
ID : 189 (0xBD)-128 (0x80)
Format : AC-3
Format/Info : Audio Coding 3
Mode extension : CM (complete main)
Muxing mode : DVD-Video
Duration : 17mn 42s
Bit rate mode : Constant
Bit rate : 192 Kbps
Channel(s) : 2 channels
Channel positions : Front: L R
Sampling rate : 48.0 KHz
Bit depth : 16 bits
Compression mode : Lossy
Delay relative to video : -221ms
Stream size : 24.3 MiB (2%)

Menu

General
Complete name : C:\Users\Documents\DIO - The Legend Live\VIDEO_TS\VTS_01_2.VOB
Format : MPEG-PS
File size : 789 MiB
Duration : 13mn 38s
Overall bit rate : 8 085 Kbps

Video
ID : 224 (0xE0)
Format : MPEG Video
Format version : Version 2
Format profile : Main@Main
Format settings, BVOP : Yes
Format settings, Matrix : Default
Format settings, GOP : M=3, N=15
Duration : 13mn 38s
Bit rate : 7 732 Kbps
Maximum bit rate : 7 754 Kbps
Width : 720 pixels
Height : 480 pixels
Display aspect ratio : 4:3
Frame rate : 29.970 fps
Standard : NTSC
Color space : YUV
Chroma subsampling : 4:2:0
Bit depth : 8 bits
Scan type : Interlaced
Scan order : Bottom Field First
Compression mode : Lossy
Bits/(Pixel*Frame) : 0.746
Stream size : 755 MiB (96%)

Audio
ID : 189 (0xBD)-128 (0x80)
Format : AC-3
Format/Info : Audio Coding 3
Mode extension : CM (complete main)
Muxing mode : DVD-Video
Duration : 13mn 38s
Bit rate mode : Constant
Bit rate : 192 Kbps
Channel(s) : 2 channels
Channel positions : Front: L R
Sampling rate : 48.0 KHz
Bit depth : 16 bits
Compression mode : Lossy
Delay relative to video : -171ms
Stream size : 18.7 MiB (2%)

1.77 GB


